<svg width="17" height="24" viewBox="0 0 17 24" fill="none" xmlns="http://www.w3.org/2000/svg">
<path d="M8.4375 0C3.78506 0 0 3.78506 0 8.4375C0 10.0094 0.435422 11.5434 1.25948 12.8743L7.95722 23.6676C8.08552 23.8744 8.31155 24 8.55464 24C8.55652 24 8.55834 24 8.56022 24C8.80542 23.9981 9.03192 23.8686 9.15788 23.6582L15.6849 12.7603C16.4635 11.4576 16.875 9.96277 16.875 8.4375C16.875 3.78506 13.0899 0 8.4375 0ZM14.4781 12.0383L8.544 21.9462L2.4547 12.1334C1.76878 11.0257 1.39688 9.74766 1.39688 8.4375C1.39688 4.56047 4.56047 1.39687 8.4375 1.39687C12.3145 1.39687 15.4734 4.56047 15.4734 8.4375C15.4734 9.7088 15.126 10.9541 14.4781 12.0383Z" fill="#D6AB63"/>
<path d="M8.4375 4.21875C6.11128 4.21875 4.21875 6.11128 4.21875 8.4375C4.21875 10.7489 6.08048 12.6562 8.4375 12.6562C10.8236 12.6562 12.6562 10.7235 12.6562 8.4375C12.6562 6.11128 10.7637 4.21875 8.4375 4.21875ZM8.4375 11.2594C6.87858 11.2594 5.61563 9.9922 5.61563 8.4375C5.61563 6.88669 6.88669 5.61563 8.4375 5.61563C9.98831 5.61563 11.2547 6.88669 11.2547 8.4375C11.2547 9.96952 10.0211 11.2594 8.4375 11.2594Z" fill="#D6AB63"/>
</svg>
