<svg width="22" height="17" viewBox="0 0 22 17" fill="none" xmlns="http://www.w3.org/2000/svg">
<path d="M20.0591 0H1.93289C0.868424 0 0 0.867479 0 1.93289V14.8188C0 15.8806 0.864558 16.7517 1.93289 16.7517H20.0591C21.1209 16.7517 21.9919 15.8871 21.9919 14.8188V1.93289C21.9919 0.871087 21.1274 0 20.0591 0ZM19.7921 1.28859L11.0369 10.0438L2.20602 1.28859H19.7921ZM1.28859 14.552V2.19357L7.4944 8.34616L1.28859 14.552ZM2.19975 15.4631L8.40947 9.25337L10.5853 11.4106C10.8372 11.6603 11.2437 11.6595 11.4945 11.4086L13.6161 9.287L19.7922 15.4631H2.19975ZM20.7034 14.5519L14.5273 8.37584L20.7034 2.19971V14.5519Z" fill="#D6AB63"/>
</svg>
