<svg width="26" height="26" viewBox="0 0 26 26" fill="none" xmlns="http://www.w3.org/2000/svg">
<path d="M22.191 3.80622C17.1134 -1.26981 8.88226 -1.2686 3.80622 3.80901C-1.26981 8.88662 -1.2686 17.1177 3.80901 22.1938C8.88662 27.2698 17.1177 27.2686 22.1938 22.191C24.6316 19.7524 26.0007 16.4453 26 12.9972C25.9993 9.54967 24.6291 6.24362 22.191 3.80622ZM19.688 18.1088C19.6875 18.1094 19.6869 18.11 19.6863 18.1106V18.1063L19.0276 18.7606C18.1758 19.6232 16.9351 19.9781 15.7559 19.6966C14.5679 19.3786 13.4385 18.8724 12.4106 18.1973C11.4556 17.5869 10.5706 16.8734 9.77164 16.0696C9.03648 15.3398 8.37602 14.5385 7.79996 13.6776C7.16986 12.7512 6.67114 11.7421 6.31796 10.6789C5.91308 9.42988 6.24859 8.05935 7.18464 7.13858L7.95596 6.36727C8.17041 6.15185 8.51887 6.15109 8.73423 6.36554C8.73479 6.3661 8.7354 6.36666 8.73596 6.36727L11.1713 8.80258C11.3867 9.01703 11.3874 9.36549 11.173 9.58085C11.1724 9.58141 11.1719 9.58197 11.1713 9.58258L9.74127 11.0126C9.33096 11.4184 9.27937 12.0633 9.61996 12.5293C10.1372 13.2391 10.7095 13.907 11.3316 14.5269C12.0253 15.2236 12.7793 15.8573 13.5849 16.4206C14.0505 16.7453 14.6816 16.6906 15.0843 16.2906L16.4666 14.8866C16.681 14.6712 17.0295 14.6704 17.2449 14.8849C17.2454 14.8855 17.246 14.886 17.2466 14.8866L19.6863 17.3306C19.9017 17.545 19.9025 17.8934 19.688 18.1088Z" fill="white"/>
</svg>
