<svg width="22" height="22" viewBox="0 0 22 22" fill="none" xmlns="http://www.w3.org/2000/svg">
<path d="M21.4345 16.2264L18.6994 13.4915C17.9454 12.7375 16.7184 12.7375 15.9644 13.4915L14.7212 14.7346C14.1499 15.3059 13.2204 15.3057 12.6494 14.7349L7.26085 9.34197C6.68827 8.76941 6.68818 7.8427 7.26085 7.27006C7.4611 7.06983 8.03609 6.49486 8.50404 6.02693C9.25478 5.27627 9.26526 4.05316 8.50331 3.29132L5.769 0.565727C5.01495 -0.188246 3.78801 -0.188246 3.03598 0.563751C2.47323 1.12157 2.29173 1.30152 2.0394 1.55165C-0.67978 4.27067 -0.67978 8.69486 2.03927 11.4138L10.5772 19.9558C13.3027 22.6813 17.7141 22.6815 20.4399 19.9558L21.4345 18.9613C22.1885 18.2073 22.1885 16.9804 21.4345 16.2264ZM3.94567 1.47735C4.197 1.22603 4.60591 1.22599 4.85806 1.47804L7.59237 4.20364C7.84431 4.45556 7.84431 4.86329 7.59237 5.11526L7.1365 5.57107L3.49215 1.92689L3.94567 1.47735ZM11.489 19.0443L2.95107 10.5022C0.847311 8.39855 0.731677 5.09532 2.59544 2.85351L6.22921 6.48713C5.27441 7.56947 5.3142 9.21874 6.34897 10.2535L11.7373 15.6461C11.7374 15.6461 11.7374 15.6462 11.7375 15.6463C12.7711 16.6799 14.4204 16.7223 15.5041 15.7662L19.138 19.3999C16.9032 21.2604 13.6073 21.1625 11.489 19.0443ZM20.5228 18.0497L20.067 18.5055L16.4203 14.8589L16.876 14.4031C17.1274 14.1518 17.5364 14.1518 17.7878 14.4031L20.5228 17.1381C20.7742 17.3894 20.7742 17.7984 20.5228 18.0497Z" fill="#D6AB63"/>
</svg>
